#!OML:ASF H:\Terrain\Patient Classification 1\Walking\steve\steve.ASF
:FULLY-SPECIFIED
:DEGREES
77
root 7.73151 15.7281 -18.6622 9.61434 -11.1792 -6.73273
lowerback -1.03644 5.88593 7.85341
upperback -3.38405 7.94935 2.64119
thorax -2.2582 3.81158 -1.64037
lowerneck -8.78989 1.88905 -4.58229
upperneck 7.75313 3.12296 -0.0320433
head 4.05318 1.39935 0.999941
rclavicle 1.18581e-013 5.32743e-014
rhumerus -7.69169 2.05297 -81.0138
rradius 47.3979
rwrist -19.2926
rhand -25.3162 -37.7596
rfingers 7.12502
rthumb 1.20617 -67.7359
lclavicle 1.18581e-013 5.32743e-014
lhumerus -65.0387 17.3706 64.4589
lradius 12.6852
lwrist -9.6591
lhand -10.7954 -6.90625
lfingers 7.12502
lthumb 15.2176 22.5141
rfemur 6.631 2.67401 28.5358
rtibia 17.0289
rfoot -2.01817 23.3979
rtoes 11.1092
lfemur -40.1072 -1.50546 -7.48277
ltibia 14.3865
lfoot -21.0151 14.5466
ltoes -13.7018
78
root 7.7455 15.72 -18.3931 9.55093 -11.5411 -6.4933
lowerback -1.1656 5.99871 7.64445
upperback -3.30237 8.07501 2.43583
thorax -2.08689 3.88506 -1.71466
lowerneck -9.3183 1.84635 -4.3764
upperneck 8.1054 3.07557 -0.0492214
head 4.2906 1.37247 0.969857
rclavicle -3.01283e-014 7.95139e-015
rhumerus -7.04295 2.29708 -80.8287
rradius 47.9756
rwrist -19.581
rhand -24.5776 -42.0242
rfingers 7.12502
rthumb 1.91951 -71.9953
lclavicle -3.01283e-014 7.95139e-015
lhumerus -66.0174 17.5478 62.96
lradius 12.5041
lwrist -9.92373
lhand -9.91309 -7.48928
lfingers 7.12502
lthumb 16.0673 21.8646
rfemur 7.97626 3.26199 27.9789
rtibia 16.2411
rfoot -0.286014 22.7674
rtoes 14.8832
lfemur -40.1717 -2.36493 -7.15251
ltibia 14.3666
lfoot -21.719 14.9107
ltoes -13.6515
79
root 7.76041 15.6991 -18.1247 9.61107 -11.7298 -6.60752
lowerback -1.34941 6.05211 7.77685
upperback -3.23517 8.11928 2.32676
thorax -1.87742 3.91166 -1.8678
lowerneck -9.87069 1.74504 -3.94573
upperneck 8.38103 2.95943 -0.495696
head 4.51841 1.29786 0.74746
rclavicle -7.86318e-014 -1.98785e-014
rhumerus -6.49563 2.57046 -80.681
rradius 48.5713
rwrist -19.6215
rhand -22.2523 -40.0875
rfingers 7.12502
rthumb 4.16511 -70.0265
lclavicle -7.86318e-014 -1.98785e-014
lhumerus -66.9113 17.9869 61.2897
lradius 12.2324
lwrist -10.8807
lhand -9.34701 -7.72938
lfingers 7.12502
lthumb 16.6124 21.5796
rfemur 9.26237 3.42687 27.7568
rtibia 15.4467
rfoot 1.59994 22.2267
rtoes 14.7337
lfemur -40.501 -2.14301 -7.20888
ltibia 15.026
lfoot -21.9066 13.5972
ltoes -11.4383
80
root 7.76566 15.6579 -17.862 9.71769 -11.6719 -7.09465
lowerback -1.34783 6.07474 8.07425
upperback -3.29527 8.15443 2.39337
thorax -1.90973 3.92044 -1.96077
lowerneck -10.3114 1.58428 -3.621
upperneck 9.0072 2.75414 -0.770527
head 4.34665 1.18471 0.531918
rclavicle 9.42861e-014 -7.95139e-015
rhumerus -6.21862 2.92152 -80.3636
rradius 49.1682
rwrist -19.8032
rhand -20.4853 -38.9815
rfingers 7.12502
rthumb 5.8713 -68.8802
lclavicle 9.42861e-014 -7.95139e-015
lhumerus -67.8393 17.9634 60.2481
lradius 12.2503
lwrist -11.2381
lhand -8.95622 -8.1873
lfingers 7.12502
lthumb 16.9886 21.0898
rfemur 10.329 3.48956 28.0801
rtibia 15.1159
rfoot 3.4086 21.674
rtoes 15.8886
lfemur -40.954 -0.940005 -7.59979
ltibia 15.996
lfoot -20.8379 12.0558
ltoes -12.8998
81
root 7.76831 15.6109 -17.5941 9.66602 -11.6918 -7.13686
lowerback -1.36571 6.11154 7.88129
upperback -3.34365 8.2048 2.3475
thorax -1.96398 3.94695 -1.9051
lowerneck -10.1646 1.57537 -3.79108
upperneck 8.81879 2.70324 -0.285604
head 4.25519 1.18651 0.701829
rclavicle 1.96989e-013 6.32135e-014
rhumerus -6.19397 3.41261 -80.1217
rradius 50.0152
rwrist -20.9231
rhand -19.053 -37.1484
rfingers 7.12502
rthumb 7.25399 -67.004
lclavicle 1.96989e-013 6.32135e-014
lhumerus -68.7245 17.9764 58.9329
lradius 12.0972
lwrist -12.0864
lhand -8.67106 -8.43758
lfingers 7.12502
lthumb 17.2631 20.8157
rfemur 11.0481 3.7468 28.016
rtibia 15.51
rfoot 5.38107 20.9415
rtoes 19.5529
lfemur -41.1886 0.192419 -8.56926
ltibia 17.1298
lfoot -19.6564 11.097
ltoes -16.7525
82
root 7.7736 15.5769 -17.3232 9.42909 -11.8345 -6.7339
lowerback -1.3518 6.14901 7.29542
upperback -3.3306 8.25325 2.15795
thorax -2.00209 3.98253 -1.78683
lowerneck -8.84815 1.85875 -4.60863
upperneck 7.2288 2.98333 1.00502
head 3.86755 1.38933 1.33782
rclavicle -7.21775e-014 -1.82882e-014
rhumerus -6.17845 3.37783 -80.2078
rradius 50.7071
rwrist -21.4097
rhand -21.5918 -39.2977
rfingers 7.12502
rthumb 4.80291 -69.2233
lclavicle -7.21775e-014 -1.82882e-014
lhumerus -69.5522 18.2642 57.0371
lradius 11.7929
lwrist -13.6322
lhand -8.48696 -8.09046
lfingers 7.12502
lthumb 17.4402 21.1472
rfemur 11.6302 4.22198 27.5268
rtibia 16.4737
rfoot 5.50404 20.4207
rtoes 15.6789
lfemur -41.065 1.22505 -10.0344
ltibia 18.4011
lfoot -18.5323 9.52946
ltoes -16.8577
83
root 7.77337 15.5451 -17.0489 9.21391 -11.9316 -6.31568
lowerback -1.42165 6.18763 6.57433
upperback -3.31402 8.29547 1.9785
thorax -2.01084 4.01951 -1.57628
lowerneck -10.0057 1.45336 -3.76962
upperneck 8.42735 2.48125 0.153047
head 4.56685 1.10201 0.906983
rclavicle 5.44173e-015 2.38542e-015
rhumerus -6.13598 2.87486 -80.2406
rradius 50.941
rwrist -20.4585
rhand -21.2313 -39.2316
rfingers 7.12502
rthumb 5.15101 -69.149
lclavicle 5.44173e-015 2.38542e-015
lhumerus -70.768 19.4381 53.0157
lradius 11.1413
lwrist -17.3254
lhand -8.08493 -8.42004
lfingers 7.12502
lthumb 17.8271 20.7828
rfemur 12.1621 4.99281 27.1002
rtibia 17.7061
rfoot 5.42392 19.5351
rtoes 12.3647
lfemur -41.0376 2.35898 -11.5801
ltibia 19.9492
lfoot -16.4554 7.88213
ltoes -14.4526
84
root 7.76923 15.5166 -16.7717 9.16159 -11.9749 -5.95532
lowerback -1.60159 6.21866 5.78993
upperback -3.37615 8.32517 1.85074
thorax -2.05869 4.05002 -1.27218
lowerneck -10.1619 1.39058 -3.50375
upperneck 8.956 2.37147 0.11493
head 4.29995 1.05425 0.758353
rclavicle -7.45675e-014 -4.17448e-014
rhumerus -6.5211 2.90449 -79.9755
rradius 51.503
rwrist -20.2403
rhand -20.5999 -38.7453
rfingers 7.12502
rthumb 5.76063 -68.647
lclavicle -7.45675e-014 -4.17448e-014
lhumerus -72.2906 20.8146 48.2543
lradius 10.4628
lwrist -21.7228
lhand -7.67971 -9.01007
lfingers 7.12502
lthumb 18.217 20.1569
rfemur 12.333 5.65799 26.7322
rtibia 19.1831
rfoot 6.2245 18.5697
rtoes 13.3717
lfemur -41.3399 3.04248 -12.7126
ltibia 21.7062
lfoot -13.5949 7.74902
ltoes -11.0416
85
root 7.77126 15.5093 -16.4904 9.18572 -11.7907 -6.03571
lowerback -1.68533 6.18275 5.58325
upperback -3.50647 8.27811 1.82104
thorax -2.17349 4.02663 -1.19286
lowerneck -9.02233 1.71812 -4.3516
upperneck 7.486 2.72871 1.48356
head 3.99966 1.29007 1.4464
rclavicle -1.07954e-014 -2.78299e-014
rhumerus -7.48781 3.25782 -79.6426
rradius 52.68
rwrist -20.8314
rhand -20.4014 -37.922
rfingers 7.12502
rthumb 5.95232 -67.8184
lclavicle -1.07954e-014 -2.78299e-014
lhumerus -73.2175 21.107 46.0801
lradius 10.377
lwrist -23.4612
lhand -7.61801 -8.84681
lfingers 7.12502
lthumb 18.2764 20.3146
rfemur 12.2413 6.03701 26.8719
rtibia 20.8634
rfoot 7.27406 17.6759
rtoes 11.6057
lfemur -41.8265 3.09434 -12.9117
ltibia 23.6775
lfoot -10.7741 8.80503
ltoes -9.57539
86
root 7.77961 15.5035 -16.2014 9.17847 -11.4922 -5.90635
lowerback -1.94577 6.07114 5.32305
upperback -3.59227 8.11189 1.65939
thorax -2.13727 3.94833 -1.19651
lowerneck -9.4106 1.66192 -4.2053
upperneck 7.88682 2.62476 1.78217
head 4.22353 1.25303 1.53052
rclavicle 1.26345e-014 8.54774e-015
rhumerus -8.60375 3.39829 -79.5477
rradius 53.9021
rwrist -21.0601
rhand -19.852 -36.9862
rfingers 7.12502
rthumb 6.48274 -66.867
lclavicle 1.26345e-014 8.54774e-015
lhumerus -73.1021 21.1194 45.7178
lradius 9.96085
lwrist -23.528
lhand -8.3446 -7.85088
lfingers 7.12502
lthumb 17.5772 21.3745
rfemur 12.0578 6.45844 26.8512
rtibia 22.6403
rfoot 9.08975 16.1168
rtoes 9.7294
lfemur -42.5374 2.73061 -13.0701
ltibia 26.0099
lfoot -8.98061 9.0007
ltoes -6.59289
87
root 7.78277 15.4733 -15.9171 9.11043 -11.4351 -5.35422
lowerback -2.31293 6.00638 4.65043
upperback -3.53262 7.99612 1.305
thorax -1.91317 3.90926 -1.15181
lowerneck -9.65602 1.64066 -4.09527
upperneck 7.80033 2.54893 2.21632
head 4.2418 1.24274 1.65756
rclavicle -1.27473e-013 -1.47101e-014
rhumerus -9.43687 3.1372 -79.8057
rradius 54.8805
rwrist -20.8665
rhand -19.6375 -37.1061
rfingers 7.12502
rthumb 6.68977 -66.9804
lclavicle -1.27473e-013 -1.47101e-014
lhumerus -72.3722 21.4774 45.3865
lradius 8.99422
lwrist -23.8341
lhand -9.58684 -6.61507
lfingers 7.12502
lthumb 16.3815 22.7131
rfemur 11.657 7.12233 26.4019
rtibia 24.7761
rfoot 11.4627 13.68
rtoes 11.1633
lfemur -43.2315 2.61142 -13.7297
ltibia 28.5077
lfoot -8.18046 8.34176
ltoes 0.257118
88
root 7.77634 15.4403 -15.6477 9.10043 -11.3954 -4.89355
lowerback -2.5482 5.94534 3.96764
upperback -3.4915 7.90217 1.01071
thorax -1.79051 3.8781 -1.05672
lowerneck -13.3887 0.84422 -1.41316
upperneck 11.7981 1.55656 -0.952273
head 5.76076 0.619815 0.0655574
rclavicle -6.86853e-014 -4.16454e-014
rhumerus -10.0163 2.71546 -80.1741
rradius 55.4096
rwrist -20.6026
rhand -19.9448 -37.6582
rfingers 7.12502
rthumb 6.39309 -67.5417
lclavicle -6.86853e-014 -4.16454e-014
lhumerus -71.9586 21.7102 45.0512
lradius 8.52607
lwrist -24.2184
lhand -9.72227 -6.6269
lfingers 7.12502
lthumb 16.2511 22.712
rfemur 10.7452 7.66744 26.054
rtibia 27.4954
rfoot 13.9645 10.5376
rtoes 14.087
lfemur -43.8311 2.99147 -14.5826
ltibia 30.9056
lfoot -7.21294 7.86322
ltoes 4.16807
